<svg xmlns="http://www.w3.org/2000/svg" viewBox="0 0 360 150" role="img" aria-label="Energya Cables">
  <defs>
    <linearGradient id="energyaMarkLight" x1="0%" y1="0%" x2="100%" y2="100%">
      <stop offset="0%" stop-color="#ffffff"/>
      <stop offset="100%" stop-color="#e8eef7"/>
    </linearGradient>
  </defs>
  <g transform="translate(8,8)">
    <path d="M18 58 C10 28 28 6 58 8 C86 10 96 34 84 54 C72 74 34 78 18 58 Z" fill="url(#energyaMarkLight)"/>
    <path d="M28 50 C34 28 56 20 74 30" fill="none" stroke="#004A99" stroke-width="3.2" stroke-linecap="round" opacity="0.9"/>
    <path d="M32 54 C40 34 58 28 72 40" fill="none" stroke="#004A99" stroke-width="2.5" stroke-linecap="round" opacity="0.75"/>
    <path d="M36 58 C44 40 58 36 68 48" fill="none" stroke="#004A99" stroke-width="2" stroke-linecap="round" opacity="0.6"/>
  </g>
  <text x="108" y="58" font-family="Arial, Helvetica, sans-serif" font-size="48" font-weight="700" fill="#ffffff">energya</text>
  <text x="148" y="86" font-family="Arial, Helvetica, sans-serif" font-size="16" font-weight="700" letter-spacing="6" fill="#F05032">CABLES</text>
  <g transform="translate(108,102)">
    <rect width="118" height="28" fill="#003B82"/>
    <text x="59" y="20" text-anchor="middle" font-family="Arial, Helvetica, sans-serif" font-size="15" font-weight="600" fill="#fff">elsewedy</text>
    <rect x="118" width="86" height="28" fill="#E23B2B"/>
    <text x="161" y="20" text-anchor="middle" font-family="Arial, Helvetica, sans-serif" font-size="14" font-weight="700" letter-spacing="1.5" fill="#fff">HELAL</text>
  </g>
</svg>
